<mxfile host="app.diagrams.net" modified="2023-09-26T12:54:27.976Z" agent="Mozilla/5.0 (Windows NT 10.0; Win64; x64) AppleWebKit/537.36 (KHTML, like Gecko) Chrome/117.0.0.0 Safari/537.36" etag="NoOnv7DkJPHh315uvcaJ" version="21.8.2" type="github">
  <diagram name="Page-1" id="74e2e168-ea6b-b213-b513-2b3c1d86103e">
    <mxGraphModel dx="1059" dy="583" grid="1" gridSize="10" guides="1" tooltips="1" connect="1" arrows="1" fold="1" page="1" pageScale="1" pageWidth="1100" pageHeight="850" background="none" math="0" shadow="0">
      <root>
        <mxCell id="0" />
        <mxCell id="1" parent="0" />
        <mxCell id="77e6c97f196da883-1" value="Pool" style="swimlane;html=1;childLayout=stackLayout;startSize=20;rounded=0;shadow=0;labelBackgroundColor=none;strokeWidth=1;fontFamily=Verdana;fontSize=8;align=center;" parent="1" vertex="1">
          <mxGeometry x="40" width="880" height="790" as="geometry" />
        </mxCell>
        <mxCell id="77e6c97f196da883-2" value="Customer service" style="swimlane;html=1;startSize=20;" parent="77e6c97f196da883-1" vertex="1">
          <mxGeometry y="20" width="160" height="770" as="geometry" />
        </mxCell>
        <mxCell id="77e6c97f196da883-8" value="Customer application" style="rounded=1;whiteSpace=wrap;html=1;shadow=0;labelBackgroundColor=none;strokeWidth=1;fontFamily=Verdana;fontSize=8;align=center;" parent="77e6c97f196da883-2" vertex="1">
          <mxGeometry x="20" y="30" width="100" height="60" as="geometry" />
        </mxCell>
        <mxCell id="77e6c97f196da883-26" style="edgeStyle=orthogonalEdgeStyle;rounded=1;html=1;labelBackgroundColor=none;startArrow=none;startFill=0;startSize=5;endArrow=classicThin;endFill=1;endSize=5;jettySize=auto;orthogonalLoop=1;strokeWidth=1;fontFamily=Verdana;fontSize=8;entryX=0.5;entryY=0;entryDx=0;entryDy=0;" parent="77e6c97f196da883-2" source="77e6c97f196da883-8" target="FZeID3XCDdK9HEWOdBIq-1" edge="1">
          <mxGeometry relative="1" as="geometry">
            <mxPoint x="70" y="135" as="targetPoint" />
          </mxGeometry>
        </mxCell>
        <mxCell id="FZeID3XCDdK9HEWOdBIq-7" value="" style="edgeStyle=orthogonalEdgeStyle;rounded=0;orthogonalLoop=1;jettySize=auto;html=1;exitX=0;exitY=0.5;exitDx=0;exitDy=0;entryX=0;entryY=0.5;entryDx=0;entryDy=0;" edge="1" parent="77e6c97f196da883-2" source="FZeID3XCDdK9HEWOdBIq-1" target="FZeID3XCDdK9HEWOdBIq-6">
          <mxGeometry relative="1" as="geometry">
            <Array as="points">
              <mxPoint x="10" y="135" />
              <mxPoint x="10" y="308" />
            </Array>
          </mxGeometry>
        </mxCell>
        <mxCell id="FZeID3XCDdK9HEWOdBIq-12" value="Yes" style="edgeLabel;html=1;align=center;verticalAlign=middle;resizable=0;points=[];" vertex="1" connectable="0" parent="FZeID3XCDdK9HEWOdBIq-7">
          <mxGeometry x="-0.8777" relative="1" as="geometry">
            <mxPoint as="offset" />
          </mxGeometry>
        </mxCell>
        <mxCell id="FZeID3XCDdK9HEWOdBIq-9" value="" style="edgeStyle=orthogonalEdgeStyle;rounded=0;orthogonalLoop=1;jettySize=auto;html=1;" edge="1" parent="77e6c97f196da883-2" source="FZeID3XCDdK9HEWOdBIq-1" target="FZeID3XCDdK9HEWOdBIq-8">
          <mxGeometry relative="1" as="geometry" />
        </mxCell>
        <mxCell id="FZeID3XCDdK9HEWOdBIq-1" value="new" style="rhombus;whiteSpace=wrap;html=1;" vertex="1" parent="77e6c97f196da883-2">
          <mxGeometry x="30" y="110" width="80" height="50" as="geometry" />
        </mxCell>
        <mxCell id="FZeID3XCDdK9HEWOdBIq-6" value="new" style="rhombus;whiteSpace=wrap;html=1;" vertex="1" parent="77e6c97f196da883-2">
          <mxGeometry x="45" y="280" width="70" height="55" as="geometry" />
        </mxCell>
        <mxCell id="FZeID3XCDdK9HEWOdBIq-10" value="" style="edgeStyle=orthogonalEdgeStyle;rounded=0;orthogonalLoop=1;jettySize=auto;html=1;" edge="1" parent="77e6c97f196da883-2" source="FZeID3XCDdK9HEWOdBIq-8" target="FZeID3XCDdK9HEWOdBIq-1">
          <mxGeometry relative="1" as="geometry" />
        </mxCell>
        <mxCell id="FZeID3XCDdK9HEWOdBIq-11" value="No" style="edgeLabel;html=1;align=center;verticalAlign=middle;resizable=0;points=[];" vertex="1" connectable="0" parent="FZeID3XCDdK9HEWOdBIq-10">
          <mxGeometry x="-0.0421" relative="1" as="geometry">
            <mxPoint as="offset" />
          </mxGeometry>
        </mxCell>
        <mxCell id="FZeID3XCDdK9HEWOdBIq-8" value="Residential" style="rhombus;whiteSpace=wrap;html=1;" vertex="1" parent="77e6c97f196da883-2">
          <mxGeometry x="30" y="200" width="80" height="60" as="geometry" />
        </mxCell>
        <mxCell id="77e6c97f196da883-3" value="MV/LV Planning DA" style="swimlane;html=1;startSize=20;" parent="77e6c97f196da883-1" vertex="1">
          <mxGeometry x="160" y="20" width="160" height="770" as="geometry" />
        </mxCell>
        <mxCell id="FZeID3XCDdK9HEWOdBIq-3" value="" style="endArrow=none;html=1;rounded=0;exitX=0;exitY=0.5;exitDx=0;exitDy=0;entryX=1;entryY=0.5;entryDx=0;entryDy=0;" edge="1" parent="77e6c97f196da883-3">
          <mxGeometry width="50" height="50" relative="1" as="geometry">
            <mxPoint x="-160" y="260" as="sourcePoint" />
            <mxPoint x="720" y="260" as="targetPoint" />
            <Array as="points">
              <mxPoint x="90" y="260" />
            </Array>
          </mxGeometry>
        </mxCell>
        <mxCell id="77e6c97f196da883-4" value="MV/LV Planning Draft officer" style="swimlane;html=1;startSize=20;" parent="77e6c97f196da883-1" vertex="1">
          <mxGeometry x="320" y="20" width="160" height="770" as="geometry" />
        </mxCell>
        <mxCell id="77e6c97f196da883-5" value="MV/LV Planning Technicians&amp;nbsp;" style="swimlane;html=1;startSize=20;" parent="77e6c97f196da883-1" vertex="1">
          <mxGeometry x="480" y="20" width="180" height="770" as="geometry" />
        </mxCell>
        <mxCell id="77e6c97f196da883-6" value="MV/LV Planning Technologist" style="swimlane;html=1;startSize=20;" parent="77e6c97f196da883-1" vertex="1">
          <mxGeometry x="660" y="20" width="180" height="770" as="geometry" />
        </mxCell>
        <mxCell id="77e6c97f196da883-7" value="MV/LV Planning Engineer" style="swimlane;html=1;startSize=20;" parent="77e6c97f196da883-1" vertex="1" collapsed="1">
          <mxGeometry x="840" y="20" width="40" height="770" as="geometry">
            <mxRectangle x="840" y="20" width="190" height="770" as="alternateBounds" />
          </mxGeometry>
        </mxCell>
      </root>
    </mxGraphModel>
  </diagram>
</mxfile>
